<?xml version="1.0" standalone="no"?>
<!DOCTYPE svg PUBLIC "-//W3C//DTD SVG 20010904//EN"
 "http://www.w3.org/TR/2001/REC-SVG-20010904/DTD/svg10.dtd">
<svg version="1.0" xmlns="http://www.w3.org/2000/svg"
 width="512.000000pt" height="512.000000pt" viewBox="0 0 512.000000 512.000000"
 preserveAspectRatio="xMidYMid meet">

<g transform="translate(0.000000,512.000000) scale(0.100000,-0.100000)"
fill="darkred" stroke="none">
<path d="M2430 4672 c-73 -24 -125 -59 -183 -121 -153 -164 -149 -416 10 -580
l53 -55 -56 -391 c-30 -214 -57 -391 -58 -393 -2 -1 -136 143 -298 320 l-296
322 30 43 c86 126 97 281 31 422 -35 73 -127 165 -198 197 -170 78 -355 46
-484 -83 -194 -195 -161 -502 73 -659 l50 -34 193 -667 193 -667 0 -523 0
-523 1070 0 1070 0 0 523 0 523 193 667 193 667 50 34 c145 98 220 261 195
420 -16 95 -54 171 -122 239 -168 168 -430 168 -598 0 -99 -100 -144 -235
-121 -364 13 -70 37 -133 70 -180 l22 -29 -24 -28 c-56 -66 -561 -622 -564
-620 -1 2 -28 179 -58 393 l-56 391 53 55 c170 175 162 439 -17 607 -84 78
-148 104 -271 109 -68 2 -104 -1 -145 -15z"/>
<path d="M1070 640 l0 -210 1490 0 1490 0 0 210 0 210 -1490 0 -1490 0 0 -210z"/>
</g>
</svg>
